<svg xmlns:xlink="http://www.w3.org/1999/xlink" xmlns="http://www.w3.org/2000/svg" version="1.1" xlink="http://www.w3.org/1999/xlink" xmlns:svgjs="http://svgjs.com/svgjs" width="120" height="146" viewBox="8.571850776672363 0.00018898067355621606 82.58573150634766 99.99982452392578"><g fill="url(&quot;#SvgjsLinearGradient1000&quot;)"><path d="M50.028 77.637c-.293 0-.592-.076-.863-.235-5.436-3.184-8.667-7.396-9.606-12.519-.99-5.322-3.662-9.032-8.164-11.336a1.708 1.708 0 0 1-.745-2.3 1.704 1.704 0 0 1 2.301-.746c5.436 2.78 8.793 7.41 9.974 13.761.763 4.16 3.369 7.492 7.97 10.188a1.71 1.71 0 0 1-.867 3.187z" fill="url(&quot;#SvgjsLinearGradient1000&quot;)"></path><path d="M39.476 60.866h-.035a1.715 1.715 0 0 1-1.677-1.747c.183-8.63 2.217-14.591 6.047-17.719a1.711 1.711 0 1 1 2.166 2.651c-3.018 2.465-4.63 7.559-4.79 15.139a1.712 1.712 0 0 1-1.71 1.676zM50.03 100c-.407 0-.814-.143-1.14-.434-4.395-3.923-7.315-7.944-8.716-11.992-1.087 1.403-1.696 2.72-1.789 3.887a1.709 1.709 0 0 1-1.088 1.462c-.61.24-1.305.104-1.789-.348-3.525-3.307-5.901-7.012-7.094-11.06-.44 1.104-.657 2.089-.633 2.922a1.718 1.718 0 0 1-.945 1.576 1.724 1.724 0 0 1-1.826-.186c-3.832-3.025-6.128-6.67-6.849-10.868a23.862 23.862 0 0 0-6.177 6.412 1.71 1.71 0 1 1-3.135-1.097l1.168-12.589c1.281-13.786 2.207-23.748 2.653-29.15.006-.069.016-.136.03-.202 1.481-7.24 3.76-12.241 6.77-14.867a1.711 1.711 0 0 1 2.248 2.58c-2.384 2.08-4.335 6.53-5.644 12.873-.452 5.443-1.374 15.373-2.647 29.083l-.655 7.04c1.751-1.73 3.756-3.245 5.998-4.536a1.714 1.714 0 0 1 2.565 1.483c0 3.487 1.175 6.49 3.58 9.111.559-1.692 1.535-3.54 2.94-5.577a1.711 1.711 0 1 1 3.117.869c.26 4.239 1.905 8.14 4.9 11.626.811-1.692 2.158-3.427 4.029-5.182a1.713 1.713 0 0 1 2.865 1.002c.625 4.323 3.453 8.755 8.403 13.173A1.713 1.713 0 0 1 50.03 100z" fill="url(&quot;#SvgjsLinearGradient1000&quot;)"></path><path d="M20.596 26.468c-.611 0-1.2-.327-1.51-.903-2.77-5.168-3.383-11.417-1.82-18.572a1.71 1.71 0 1 1 3.07-.621c4.843 6.857 8.02 9.531 9.835 10.567a1.71 1.71 0 1 1-1.698 2.971c-2.463-1.405-5.308-4.178-8.49-8.263-.458 4.69.25 8.814 2.118 12.3a1.71 1.71 0 0 1-1.505 2.521z" fill="url(&quot;#SvgjsLinearGradient1000&quot;)"></path><path d="M24.931 16.486a1.71 1.71 0 0 1-1.086-3.034C33.695 5.369 42.19.974 49.815.013a1.712 1.712 0 0 1 .429 3.396c-6.87.866-15.023 5.134-24.23 12.688a1.7 1.7 0 0 1-1.083.389zm25.1 61.151a1.71 1.71 0 0 1-.875-3.184c4.568-2.707 7.158-6.04 7.917-10.187 1.183-6.356 4.54-10.986 9.976-13.765a1.707 1.707 0 0 1 2.3.745c.431.841.1 1.871-.744 2.301-4.502 2.304-7.173 6.014-8.166 11.34-.933 5.102-4.142 9.313-9.537 12.51-.273.164-.574.24-.87.24z" fill="url(&quot;#SvgjsLinearGradient1000&quot;)"></path><path d="M60.524 60.866c-.93 0-1.692-.743-1.712-1.676-.159-7.58-1.77-12.674-4.79-15.139a1.711 1.711 0 0 1 2.167-2.65c3.83 3.127 5.864 9.089 6.047 17.718a1.715 1.715 0 0 1-1.677 1.747h-.035zM36.277 44.193a9.68 9.68 0 0 1-2.925-.457c-4.188-1.333-8.108-5.619-7.387-12.023l-.497-.301a1.713 1.713 0 0 1 1.772-2.928c.4.241.792.48 1.18.71.21.076.399.19.56.334 6.945 4.135 11.661 6.474 14.032 6.958a1.711 1.711 0 0 1 1.22 2.374c-1.7 3.807-4.872 5.333-7.955 5.333zm-6.95-10.49c.22 3.597 2.567 5.977 5.065 6.772 1.808.575 4.058.432 5.646-1.332-2.543-.959-6.088-2.759-10.71-5.44zm34.396 10.49c-3.083 0-6.255-1.525-7.955-5.333a1.711 1.711 0 0 1 1.22-2.374c2.37-.484 7.087-2.823 14.032-6.958a1.73 1.73 0 0 1 .56-.334c.388-.23.78-.469 1.18-.71a1.713 1.713 0 0 1 1.773 2.928l-.498.3c.721 6.405-3.2 10.69-7.387 12.024a9.679 9.679 0 0 1-2.925.457zm-3.761-5.05c1.586 1.763 3.836 1.907 5.646 1.332 2.498-.795 4.844-3.175 5.064-6.772-4.622 2.681-8.167 4.481-10.71 5.44zM44.894 51.91a1.713 1.713 0 0 1-1.594-2.337c.804-2.046 1.406-3.23 2.074-4.081a1.711 1.711 0 0 1 2.692 2.113c-.56.713-1.138 2.095-1.578 3.219a1.715 1.715 0 0 1-1.594 1.086z" fill="url(&quot;#SvgjsLinearGradient1000&quot;)"></path><path d="M55.106 51.91a1.715 1.715 0 0 1-1.594-1.086c-.44-1.124-1.018-2.506-1.578-3.22a1.711 1.711 0 1 1 2.692-2.112c.668.852 1.27 2.035 2.074 4.082a1.713 1.713 0 0 1-1.594 2.336zM50.03 100a1.7 1.7 0 0 1-1.27-.566 1.708 1.708 0 0 1 .124-2.415c4.917-4.44 7.727-8.875 8.35-13.181a1.713 1.713 0 0 1 2.865-1.002c1.871 1.756 3.218 3.49 4.03 5.182 2.994-3.486 4.64-7.387 4.899-11.627a1.711 1.711 0 0 1 3.116-.868c1.406 2.038 2.382 3.885 2.94 5.577 2.406-2.621 3.581-5.624 3.581-9.11a1.713 1.713 0 0 1 2.565-1.484 29.279 29.279 0 0 1 5.998 4.535l-.655-7.04c-1.273-13.709-2.195-23.64-2.647-29.082-1.309-6.343-3.26-10.793-5.644-12.872a1.711 1.711 0 0 1 2.248-2.58c3.01 2.625 5.289 7.627 6.77 14.866.014.066.024.133.03.202.446 5.402 1.372 15.364 2.653 29.15l1.167 12.59a1.71 1.71 0 0 1-3.134 1.096 23.862 23.862 0 0 0-6.177-6.412c-.721 4.198-3.017 7.843-6.849 10.868a1.724 1.724 0 0 1-1.826.186 1.718 1.718 0 0 1-.945-1.576c.024-.833-.193-1.818-.633-2.922-1.193 4.048-3.569 7.753-7.094 11.06a1.704 1.704 0 0 1-1.789.348 1.709 1.709 0 0 1-1.088-1.462c-.093-1.167-.702-2.484-1.789-3.887-1.393 4.032-4.292 8.051-8.65 11.984a1.697 1.697 0 0 1-1.147.442z" fill="url(&quot;#SvgjsLinearGradient1000&quot;)"></path><path d="M79.404 26.468a1.71 1.71 0 0 1-1.505-2.52c1.869-3.487 2.576-7.611 2.118-12.3-3.182 4.084-6.027 6.857-8.49 8.262a1.71 1.71 0 1 1-1.698-2.971c1.814-1.036 4.992-3.71 9.834-10.567a1.712 1.712 0 0 1 3.07.62c1.564 7.156.951 13.405-1.82 18.573a1.709 1.709 0 0 1-1.509.903z" fill="url(&quot;#SvgjsLinearGradient1000&quot;)"></path><path d="M75.069 16.486c-.382 0-.765-.128-1.083-.39C64.78 8.547 56.648 4.277 49.813 3.41a1.712 1.712 0 0 1-1.482-1.913A1.72 1.72 0 0 1 50.246.013c7.587.964 16.064 5.36 25.91 13.439a1.71 1.71 0 0 1-1.087 3.034zM50.031 30.747a1.71 1.71 0 0 1-1.519-.921c-1.985-3.809-4.278-6.703-6.813-8.606a1.713 1.713 0 0 1 2.056-2.738c2.947 2.211 5.569 5.496 7.792 9.762a1.712 1.712 0 0 1-1.516 2.503z" fill="url(&quot;#SvgjsLinearGradient1000&quot;)"></path><path d="M50.028 30.747a1.712 1.712 0 0 1-1.525-2.485c2.153-4.25 4.76-7.54 7.743-9.78A1.712 1.712 0 1 1 58.3 21.22c-2.562 1.922-4.83 4.811-6.745 8.588a1.713 1.713 0 0 1-1.528.939z" fill="url(&quot;#SvgjsLinearGradient1000&quot;)"></path></g><defs><linearGradient gradientUnits="userSpaceOnUse" id="SvgjsLinearGradient1000" x1="4.21832752227786" y1="95.64649025020479" x2="95.51110553741456" y2="4.353712235068083"><stop stop-color="#9013fe" offset="0.05"></stop><stop stop-color="#470581" offset="0.95"></stop></linearGradient><linearGradient gradientUnits="userSpaceOnUse" id="SvgjsLinearGradient1000" x1="4.21832752227786" y1="95.64649025020479" x2="95.51110553741456" y2="4.353712235068083"><stop stop-color="#9013fe" offset="0.05"></stop><stop stop-color="#470581" offset="0.95"></stop></linearGradient><linearGradient gradientUnits="userSpaceOnUse" id="SvgjsLinearGradient1000" x1="4.21832752227786" y1="95.64649025020479" x2="95.51110553741456" y2="4.353712235068083"><stop stop-color="#9013fe" offset="0.05"></stop><stop stop-color="#470581" offset="0.95"></stop></linearGradient><linearGradient gradientUnits="userSpaceOnUse" id="SvgjsLinearGradient1000" x1="4.21832752227786" y1="95.64649025020479" x2="95.51110553741456" y2="4.353712235068083"><stop stop-color="#9013fe" offset="0.05"></stop><stop stop-color="#470581" offset="0.95"></stop></linearGradient><linearGradient gradientUnits="userSpaceOnUse" id="SvgjsLinearGradient1000" x1="4.21832752227786" y1="95.64649025020479" x2="95.51110553741456" y2="4.353712235068083"><stop stop-color="#9013fe" offset="0.05"></stop><stop stop-color="#470581" offset="0.95"></stop></linearGradient><linearGradient gradientUnits="userSpaceOnUse" id="SvgjsLinearGradient1000" x1="4.21832752227786" y1="95.64649025020479" x2="95.51110553741456" y2="4.353712235068083"><stop stop-color="#9013fe" offset="0.05"></stop><stop stop-color="#470581" offset="0.95"></stop></linearGradient><linearGradient gradientUnits="userSpaceOnUse" id="SvgjsLinearGradient1000" x1="4.21832752227786" y1="95.64649025020479" x2="95.51110553741456" y2="4.353712235068083"><stop stop-color="#9013fe" offset="0.05"></stop><stop stop-color="#470581" offset="0.95"></stop></linearGradient><linearGradient gradientUnits="userSpaceOnUse" id="SvgjsLinearGradient1000" x1="4.21832752227786" y1="95.64649025020479" x2="95.51110553741456" y2="4.353712235068083"><stop stop-color="#9013fe" offset="0.05"></stop><stop stop-color="#470581" offset="0.95"></stop></linearGradient><linearGradient gradientUnits="userSpaceOnUse" id="SvgjsLinearGradient1000" x1="4.21832752227786" y1="95.64649025020479" x2="95.51110553741456" y2="4.353712235068083"><stop stop-color="#9013fe" offset="0.05"></stop><stop stop-color="#470581" offset="0.95"></stop></linearGradient><linearGradient gradientUnits="userSpaceOnUse" id="SvgjsLinearGradient1000" x1="4.21832752227786" y1="95.64649025020479" x2="95.51110553741456" y2="4.353712235068083"><stop stop-color="#9013fe" offset="0.05"></stop><stop stop-color="#470581" offset="0.95"></stop></linearGradient><linearGradient gradientUnits="userSpaceOnUse" id="SvgjsLinearGradient1000" x1="4.21832752227786" y1="95.64649025020479" x2="95.51110553741456" y2="4.353712235068083"><stop stop-color="#9013fe" offset="0.05"></stop><stop stop-color="#470581" offset="0.95"></stop></linearGradient></defs></svg>