<?xml version="1.0" encoding="iso-8859-1"?>
<!-- Generator: Adobe Illustrator 16.0.0, SVG Export Plug-In . SVG Version: 6.00 Build 0)  -->
<!DOCTYPE svg PUBLIC "-//W3C//DTD SVG 1.1//EN" "http://www.w3.org/Graphics/SVG/1.1/DTD/svg11.dtd">
<svg version="1.1" id="Capa_1" xmlns="http://www.w3.org/2000/svg" xmlns:xlink="http://www.w3.org/1999/xlink" x="0px" y="0px"
	 width="43.105px" height="43.105px" viewBox="0 0 43.105 43.105" style="enable-background:new 0 0 43.105 43.105;"
	 xml:space="preserve">
<g>
	<path d="M32.201,15.928C32.201,7.145,25.056,0,16.275,0C7.493,0,0.346,7.145,0.346,15.928s7.146,15.928,15.928,15.928
		C25.056,31.855,32.201,24.711,32.201,15.928z M28.203,15.928c0,2.661-0.887,5.111-2.364,7.1h-1.146V8.473h-3.981v14.555h-1.327
		V12.328h-3.982v10.697h-1.16v-7.723h-3.982v7.723H8.673V6.743c2.066-1.713,4.716-2.745,7.603-2.745
		C22.852,3.999,28.203,9.35,28.203,15.928z M4.346,15.928c0-2.95,1.083-5.648,2.864-7.732v14.832v0.635
		C5.428,21.576,4.346,18.878,4.346,15.928z M7.987,24.49h0.045c0.213,0,0.426,0,0.64,0c5.296,0,10.594,0,15.89,0
		c-2.147,2.08-5.068,3.367-8.288,3.367C13.054,27.857,10.136,26.57,7.987,24.49z M27.003,30.869l3.521-3.521L42.76,39.584
		l-3.521,3.521L27.003,30.869z"/>
</g>
<g>
</g>
<g>
</g>
<g>
</g>
<g>
</g>
<g>
</g>
<g>
</g>
<g>
</g>
<g>
</g>
<g>
</g>
<g>
</g>
<g>
</g>
<g>
</g>
<g>
</g>
<g>
</g>
<g>
</g>
</svg>
